# xmcd
#
# Track frame offsets:
#	150
#	15270
#	28227
#	42560
#	50892
#	64167
#	79810
#	93092
#	110025
#	122205
#	140055
#	148682
#
# Disc length: 2230 seconds
#
# Revision: 2
# Processed by: cddbd v1.4PL0 Copyright (c) Steve Scherf et al.
# Submitted via: EasyCDDAExtractor 5.0.7
#
DISCID=b108b40c
DTITLE=Billie Jo Spears - Midnight Love
DYEAR=1987
DGENRE=Country
TTITLE0=Midnight Love
TTITLE1=Can't Change My Heart
TTITLE2=Love Dies Hard
TTITLE3=Baby On My Mind
TTITLE4=Settin' Me Up
TTITLE5=Blowing Away
TTITLE6=Midnight Blue
TTITLE7=We Just Came Apart At The Dreams
TTITLE8=C'est La Vie
TTITLE9=Too Far Gone
TTITLE10=Sweet Dreams
TTITLE11=Ain't No Money
EXTD=
EXTT0=
EXTT1=
EXTT2=
EXTT3=
EXTT4=
EXTT5=
EXTT6=
EXTT7=
EXTT8=
EXTT9=
EXTT10=
EXTT11=
PLAYORDER=
